<?xml version="1.0" standalone="no"?>
<!DOCTYPE svg PUBLIC "-//W3C//DTD SVG 20010904//EN"
 "http://www.w3.org/TR/2001/REC-SVG-20010904/DTD/svg10.dtd">
<svg version="1.0" xmlns="http://www.w3.org/2000/svg"
 width="398.000000pt" height="398.000000pt" viewBox="0 0 398.000000 398.000000"
 preserveAspectRatio="xMidYMid meet">

<g transform="translate(0.000000,398.000000) scale(0.100000,-0.100000)"
fill="#000000" stroke="none">
<path d="M2572 3490 c-114 -30 -187 -74 -283 -170 -68 -68 -95 -104 -128 -170
-106 -215 -82 -477 62 -665 49 -64 54 -76 60 -137 11 -117 77 -212 168 -239
79 -24 280 33 334 95 14 16 39 26 84 34 177 31 361 174 450 350 86 169 79 420
-16 591 -48 86 -178 216 -260 259 -135 71 -321 91 -471 52z m355 -45 c193 -61
356 -236 404 -435 7 -30 13 -95 13 -145 -2 -172 -52 -293 -174 -415 -107 -108
-247 -180 -349 -180 l-39 0 5 39 c4 29 1 43 -13 57 -11 11 -19 33 -20 49 0 17
-3 37 -7 45 -5 11 10 24 55 50 117 67 143 104 98 145 -28 26 -56 17 -256 -80
-97 -47 -184 -85 -193 -85 -13 0 -21 14 -31 57 -9 44 -22 67 -51 96 -33 33
-43 38 -76 35 -33 -3 -38 -6 -41 -31 -2 -16 4 -46 12 -68 9 -22 16 -54 16 -71
0 -28 -2 -30 -14 -18 -31 32 -88 138 -106 200 -67 226 -13 437 154 605 128
129 234 173 423 174 93 1 125 -3 190 -24z m-595 -816 c25 -13 57 -84 58 -124
0 -78 40 -73 264 35 103 50 196 90 207 90 43 0 14 -31 -81 -86 -55 -33 -100
-64 -100 -70 0 -6 9 -19 20 -29 22 -20 26 -45 9 -62 -8 -8 -4 -16 15 -28 22
-15 26 -24 24 -59 -1 -22 2 -48 6 -57 6 -14 -4 -22 -49 -43 -181 -83 -273 -74
-343 32 -36 54 -36 54 -43 195 -3 78 -11 155 -18 170 -19 49 -11 58 31 36z"/>
<path d="M2402 3250 c-23 -17 -42 -37 -42 -45 0 -19 -4 -19 54 10 60 31 102
32 167 4 74 -32 76 -13 5 35 -57 38 -128 37 -184 -4z"/>
<path d="M3030 3163 c-31 -10 -75 -13 -143 -10 -77 4 -96 3 -88 -7 6 -7 29
-19 50 -26 l40 -13 -19 -25 c-43 -53 -15 -142 45 -142 55 0 91 61 74 124 -5
20 -15 36 -22 36 -7 1 10 10 37 20 47 18 85 45 75 53 -2 2 -24 -3 -49 -10z"/>
<path d="M2517 3163 c-41 -11 -62 -108 -31 -151 22 -32 76 -30 103 4 36 46 22
136 -23 148 -11 3 -23 5 -26 5 -3 -1 -13 -3 -23 -6z"/>
<path d="M2548 2790 c-65 -35 -43 -61 27 -34 61 23 135 14 214 -25 34 -18 66
-29 71 -26 24 15 5 36 -57 67 -88 42 -196 50 -255 18z"/>
<path d="M1105 2265 c-95 -27 -211 -92 -278 -158 -110 -109 -147 -180 -197
-384 -20 -84 -24 -92 -40 -83 -29 15 -65 12 -90 -8 -31 -25 -64 -180 -50 -231
5 -20 10 -60 10 -88 0 -63 26 -98 66 -90 l24 4 0 -99 c0 -138 12 -163 182
-366 76 -90 85 -110 72 -159 -5 -17 -18 -24 -63 -33 -31 -7 -78 -18 -106 -26
-27 -8 -79 -19 -114 -24 -114 -16 -169 -75 -189 -201 l-9 -57 36 -17 c71 -34
312 -119 316 -112 1 1 25 30 53 65 29 35 53 68 53 75 1 7 1 49 -1 94 -2 68 2
92 24 146 14 36 26 82 26 101 0 36 6 42 26 28 18 -12 22 -35 14 -89 -7 -60 0
-73 43 -73 35 0 174 88 226 144 40 41 61 46 61 14 0 -21 -73 -100 -140 -150
-19 -14 -32 -29 -28 -33 10 -10 119 76 161 127 30 36 37 40 43 25 11 -29 -58
-121 -121 -163 -50 -33 -68 -54 -47 -54 21 0 115 76 139 111 15 23 29 37 31
31 7 -23 -49 -110 -102 -155 -51 -44 -68 -67 -48 -67 10 1 124 111 139 135 11
17 11 15 2 -10 -17 -50 -46 -89 -108 -149 -73 -69 -134 -97 -223 -104 -38 -3
-68 -9 -68 -13 0 -5 4 -9 10 -9 6 0 6 -9 -1 -26 -5 -15 -8 -29 -5 -31 2 -3 31
-7 64 -10 l61 -6 3 33 c3 30 10 37 68 67 36 18 71 33 78 33 7 0 24 -11 37 -25
19 -18 25 -35 25 -70 l0 -45 58 0 c72 0 256 24 337 44 89 21 228 65 237 74 13
13 -21 183 -45 226 -26 48 -76 84 -126 91 -20 2 -97 16 -171 30 -74 13 -148
24 -163 24 -15 -1 -31 1 -34 5 -7 7 16 36 29 36 5 0 64 25 132 55 143 65 170
89 224 199 23 46 42 74 46 67 4 -6 21 -11 37 -11 32 0 79 38 79 65 0 8 16 32
35 54 47 52 90 189 75 237 -10 30 -44 54 -77 54 -11 0 -14 6 -9 23 40 141 50
200 51 307 0 101 -3 125 -28 197 -32 93 -99 194 -176 266 -57 53 -183 118
-276 142 -73 18 -231 18 -300 0z m61 -283 c91 -62 161 -84 264 -82 141 4 162
1 217 -26 46 -22 56 -33 85 -91 29 -60 32 -75 36 -182 4 -105 2 -123 -22 -190
-30 -87 -32 -108 -9 -155 14 -29 14 -43 5 -92 -13 -63 -139 -327 -180 -376
-26 -30 -144 -92 -262 -137 -44 -17 -52 -17 -63 -5 -48 57 -53 57 -119 -6 -61
-58 -86 -62 -163 -26 -69 32 -155 114 -251 237 -125 160 -119 144 -116 354 3
231 11 268 68 320 41 38 44 45 58 126 24 145 105 283 203 349 45 29 53 31 118
28 63 -3 76 -8 131 -46z m-591 -374 c16 -7 24 -17 20 -26 -3 -7 -5 -26 -5 -40
0 -26 -1 -26 -18 8 -9 19 -25 36 -34 38 -25 5 -23 -14 2 -21 17 -4 20 -14 20
-70 0 -36 -5 -69 -10 -72 -7 -4 -8 -33 -4 -79 5 -57 3 -74 -9 -84 -25 -21 -50
13 -43 57 3 19 0 52 -6 73 -19 64 18 228 52 228 5 0 21 -5 35 -12z m1311 -345
c10 -36 -32 -161 -64 -196 -15 -15 -36 -47 -47 -70 -21 -44 -48 -59 -59 -32
-6 17 14 64 45 104 11 13 19 37 19 54 0 17 11 50 25 74 20 33 32 43 51 43 14
0 22 4 19 10 -9 15 -41 12 -55 -5 -18 -21 -22 -13 -11 19 8 20 17 26 41 26 24
0 31 -5 36 -27z m-921 -692 l40 -18 -35 -21 c-36 -23 -70 -29 -70 -13 0 22 13
71 19 70 3 0 24 -8 46 -18z m318 -73 c-13 -26 -18 -29 -21 -15 -5 26 5 47 23
47 14 0 13 -4 -2 -32z"/>
<path d="M876 1659 c-47 -11 -113 -47 -120 -66 -7 -17 11 -17 64 2 61 21 92
19 173 -14 126 -51 148 -56 163 -37 16 22 7 54 -20 71 -27 18 -163 55 -196 54
-14 -1 -42 -5 -64 -10z"/>
<path d="M790 1498 c-19 -13 -36 -31 -38 -40 -2 -9 16 -37 40 -61 54 -57 120
-74 224 -61 63 8 69 11 72 34 7 66 -93 139 -202 147 -52 4 -66 2 -96 -19z m24
-32 c-8 -20 12 -53 36 -61 30 -10 70 20 70 51 0 23 3 25 26 20 57 -15 129 -84
109 -105 -4 -3 -43 -6 -88 -6 -92 0 -140 19 -167 68 -13 24 -13 29 0 37 20 13
20 12 14 -4z m76 4 c0 -5 -2 -10 -4 -10 -3 0 -8 5 -11 10 -3 6 -1 10 4 10 6 0
11 -4 11 -10z"/>
<path d="M1290 1495 c-35 -42 18 -71 160 -84 94 -9 123 -19 178 -56 42 -29 62
-19 37 18 -27 41 -103 84 -199 111 -99 29 -158 33 -176 11z"/>
<path d="M1130 1420 c0 -11 -11 -49 -25 -86 -26 -69 -31 -104 -16 -104 9 0 71
166 71 193 0 9 -7 17 -15 17 -8 0 -15 -9 -15 -20z"/>
<path d="M1235 1403 c-13 -37 -34 -208 -26 -216 13 -13 18 1 30 83 6 41 14 92
17 113 7 38 -8 53 -21 20z"/>
<path d="M1313 1361 c-32 -20 -54 -62 -35 -69 5 -1 30 -18 54 -36 53 -41 96
-56 159 -56 48 0 129 27 129 43 0 29 -34 80 -70 103 -35 23 -55 28 -123 31
-69 4 -87 1 -114 -16z m97 -21 c0 -5 -4 -10 -10 -10 -5 0 -10 5 -10 10 0 6 5
10 10 10 6 0 10 -4 10 -10z m108 -11 c90 -44 77 -99 -25 -99 -62 0 -103 15
-155 58 -33 25 -36 31 -23 42 13 10 15 9 15 -9 0 -31 41 -54 74 -42 24 10 30
22 29 59 -1 18 35 15 85 -9z"/>
<path d="M1007 1157 c-31 -25 -31 -56 2 -86 50 -46 93 -62 156 -57 31 3 63 10
71 17 18 15 15 80 -4 87 -8 2 -12 -5 -10 -25 3 -44 -6 -49 -74 -48 -49 1 -71
6 -100 25 -41 27 -46 44 -22 71 18 20 4 34 -19 16z"/>
<path d="M932 928 c-15 -15 -16 -48 -2 -48 6 0 10 4 10 9 0 10 51 6 110 -9
100 -25 121 -32 139 -51 15 -16 20 -17 30 -6 7 9 8 23 3 37 -6 15 -11 19 -16
12 -5 -9 -15 -8 -37 3 -34 18 -103 35 -171 42 -27 3 -45 9 -42 14 8 13 -10 11
-24 -3z"/>
<path d="M990 843 c0 -14 46 -33 96 -40 62 -8 55 11 -8 23 -29 6 -61 14 -70
18 -10 5 -18 4 -18 -1z"/>
</g>
</svg>
